<svg width="32" height="32" viewBox="0 0 32 32" fill="none" xmlns="http://www.w3.org/2000/svg">
<path fill-rule="evenodd" clip-rule="evenodd" d="M10.1669 4.64212C10.5845 3.68407 10.7933 3.20504 11.2084 2.93589C11.6235 2.66675 12.1536 2.66675 13.2137 2.66675H18.7865C19.8466 2.66675 20.3766 2.66675 20.7918 2.93589C21.2069 3.20504 21.4157 3.68407 21.8333 4.64212L24.5253 10.8184C25.1893 12.3418 25.5213 13.1035 25.2234 13.7558C24.9255 14.4081 24.1259 14.6702 22.5267 15.1943L16.0001 17.3334L9.47337 15.1943C7.87423 14.6702 7.07464 14.4081 6.77673 13.7558C6.47881 13.1035 6.81083 12.3418 7.47484 10.8184L10.1669 4.64212Z" stroke="black" stroke-width="1.5" stroke-linecap="round" stroke-linejoin="round"/>
<path d="M15.9999 17.3334L11.3333 3.33341M20.6666 15.3334L15.9999 2.66675" stroke="black" stroke-width="1.5" stroke-linecap="round" stroke-linejoin="round"/>
<path d="M17.0365 18.1998L18.0924 20.329C18.2364 20.6254 18.6204 20.9096 18.9444 20.964L20.8581 21.2847C22.082 21.4903 22.37 22.3856 21.4881 23.2687L20.0003 24.7688C19.7483 25.023 19.6103 25.5128 19.6883 25.8638L20.1143 27.7207C20.4503 29.1906 19.6763 29.7592 18.3864 28.991L16.5927 27.9203C16.2687 27.7268 15.7347 27.7268 15.4048 27.9203L13.6109 28.991C12.3271 29.7592 11.5472 29.1846 11.8831 27.7207L12.3091 25.8638C12.3871 25.5128 12.2491 25.023 11.9971 24.7688L10.5093 23.2687C9.6334 22.3856 9.91537 21.4903 11.1392 21.2847L13.053 20.964C13.3709 20.9096 13.7549 20.6254 13.8989 20.329L14.9548 18.1998C15.5308 17.0444 16.4667 17.0444 17.0365 18.1998Z" stroke="black" stroke-width="1.5" stroke-linecap="round" stroke-linejoin="round"/>
</svg>
